<svg style="display:none"><defs><svg id="op3-icons-button-circle-play-2" xmlns="http://www.w3.org/2000/svg" viewBox="0 0 32 32"><path fill="currentColor" d="M16 0C7.178 0 0 7.178 0 16s7.178 16 16 16 16-7.178 16-16S24.822 0 16 0zm-3.967 8c.176.006.35.059.504.156l11 7a1.001 1.001 0 010 1.688l-11 7a1.01 1.01 0 01-1.017.033A1.002 1.002 0 0111 23V9a1.002 1.002 0 011.033-1z"/></svg><svg id="op3-icons-email-85-1" xmlns="http://www.w3.org/2000/svg" viewBox="0 0 32 32"><path fill="currentColor" d="M0 4v24h32V4H0zm2 2h28v20H2V6zm3.633 2.227L4.367 9.773 16 19.293l11.633-9.52-1.265-1.546L16 16.707 5.634 8.227zm2.586 8.148l-4 5 1.562 1.25 4-5-1.562-1.25zm15.562 0l-1.563 1.25 4 5 1.563-1.25-4-5z"/></svg><svg id="op3-icons-logo-facebook" xmlns="http://www.w3.org/2000/svg" viewBox="0 0 32 32"><path fill="currentColor" d="M1.3 0C.6 0 0 .6 0 1.3v29.3c0 .8.6 1.4 1.3 1.4H17V20h-4v-5h4v-4c0-4.1 2.6-6.199 6.3-6.199 1.8 0 3.3.2 3.7.2v4.3h-2.6c-2 0-2.5.998-2.5 2.398V15h5l-1 5h-4l.1 12h8.6c.7 0 1.3-.6 1.3-1.3V1.3C32 .6 31.399 0 30.699 0H1.301z"/></svg><svg id="op3-icons-logo-skype" xmlns="http://www.w3.org/2000/svg" viewBox="0 0 32 32"><path fill="currentColor" d="M8.105.18C6.035.26 4.087 1.212 2.6 2.7.9 4.3 0 6.6 0 9c0 1.493.398 2.985 1.092 4.281C.995 14.147.9 14.93.9 15.801c0 2 .4 3.998 1.2 5.898.8 1.8 1.8 3.4 3.2 4.8 1.4 1.4 3 2.5 4.8 3.2C12 30.6 14 31 16 31c.87 0 1.737-.092 2.518-.189 1.296.793 2.889 1.19 4.382 1.19 2.4 0 4.6-.9 6.3-2.6s2.6-3.9 2.6-6.3c.2-1.6-.2-3.1-.9-4.4v.2l-.1-.3.1.1c.2-.9.3-1.8.3-2.7 0-2-.4-4-1.2-5.9-.8-1.8-1.8-3.4-3.2-4.8-1.4-1.4-3-2.5-4.8-3.2a14.439 14.439 0 00-8.9-1h-.12C11.742.48 10.417.2 9 .2a7.333 7.333 0 00-.895-.02zm4.971.963l.225.056h-.102c-.04-.022-.082-.035-.123-.056zM15.801 6.1C19.1 6.1 23 7.9 23 10.4c0 1-.9 1.6-1.9 1.6-2 0-1.6-2.7-5.5-2.7-2 0-3 .9-3 2.2s1.5 1.7 2.9 2l3.5.8c3.9.9 4.9 3.1 4.9 5.3-.2 3.1-2.7 5.6-7.8 5.6-5.4 0-7.8-2.6-7.8-4.6 0-1 .7-1.7 1.8-1.7 2.3 0 1.7 3.3 6 3.3 2.2 0 3.4-1.2 3.4-2.4 0-.7-.4-1.5-1.8-1.9l-4.8-1.2c-3.8-1-4.5-3-4.5-5 0-4.1 3.8-5.6 7.4-5.6zM1.1 13.1l.1.3s-.1-.1-.1-.2v-.1zm17.3 17.6l.3.101h-.1c-.1 0-.1-.101-.2-.101z"/></svg><svg id="op3-icons-logo-twitter" xmlns="http://www.w3.org/2000/svg" viewBox="0 0 32 32"><path fill="currentColor" d="M22.199 3c-3.6 0-6.6 2.9-6.6 6.6 0 .5.102 1 .202 1.5-5.5-.3-10.302-2.9-13.602-6.9-.6 1-.899 2.1-.899 3.3 0 2.3 1.2 4.3 2.9 5.5-1.1 0-2.1-.3-3-.8v.1c0 3.2 2.3 5.8 5.3 6.4-.6.1-1.099.2-1.699.2-.4 0-.801 0-1.201-.1.8 2.6 3.3 4.5 6.1 4.6-2.2 1.8-5.1 2.8-8.2 2.8-.5 0-1.1 0-1.6-.1 3 1.8 6.5 2.9 10.2 2.9 12.1 0 18.7-10 18.7-18.7v-.8c1.2-1 2.3-2.1 3.2-3.4-1.2.5-2.4.9-3.8 1 1.4-.8 2.4-2.1 2.9-3.6-1.3.8-2.7 1.3-4.2 1.6C25.7 3.8 24 3 22.2 3z"/></svg><svg id="op3-icons-small-right" xmlns="http://www.w3.org/2000/svg" viewBox="0 0 32 32"><path fill="currentColor" d="M13 8.586L11.586 10l6 6-6 6L13 23.414 20.414 16 13 8.586z"/></svg><svg id="op3-icons-tiktok" xmlns="http://www.w3.org/2000/svg" viewBox="0 0 32 32"><path fill="currentColor" d="M13.586 11.917v5.5a4.784 4.784 0 00-6 4.431 4.324 4.324 0 004.623 4.589c3.416 0 4.623-2.4 4.623-4.651V0h5.438c.925 5.753 3.8 7.088 7.654 7.705v5.512s-4.572-.325-7.5-2.533v10.889C22.421 26.5 19.5 32 12.25 32 5.522 32 2.08 26.3 2.08 21.522a10.02 10.02 0 0111.506-9.605z"/></svg></defs></svg>